<svg width="15" height="16" viewBox="0 0 15 16" fill="none" xmlns="http://www.w3.org/2000/svg">
<path d="M7.03242 7.33633L6.40117 7.11758C6.08242 7.00508 5.88867 6.89883 5.88867 6.35508C5.88867 5.91133 6.21992 5.54883 6.62617 5.54883H7.03242V7.33633Z" fill="#6610F2"/>
<path d="M8.375 10.4491H7.96875V8.66162L8.6 8.88037C8.91875 8.99287 9.1125 9.09912 9.1125 9.64287C9.1125 10.0866 8.78125 10.4491 8.375 10.4491Z" fill="#6610F2"/>
<path fill-rule="evenodd" clip-rule="evenodd" d="M4.88125 1.75C2.60625 1.75 1.25 3.10625 1.25 5.38125V10.6188C1.25 12.8938 2.60625 14.25 4.88125 14.25H10.1188C12.3938 14.25 13.75 12.8938 13.75 10.6188V5.38125C13.75 3.10625 12.3938 1.75 10.1188 1.75H4.88125ZM10.05 9.64375C10.05 10.6062 9.3 11.3875 8.375 11.3875H7.96875V11.75C7.96875 12.0063 7.75625 12.2188 7.5 12.2188C7.24375 12.2188 7.03125 12.0063 7.03125 11.75V11.3875H6.80625C5.78125 11.3875 4.95 10.5188 4.95 9.45625C4.95 9.2 5.15625 8.9875 5.41875 8.9875C5.675 8.9875 5.8875 9.2 5.8875 9.45625C5.8875 10.0063 6.3 10.45 6.80625 10.45H7.03125V8.33125L6.0875 8C5.6 7.83125 4.95 7.475 4.95 6.35625C4.95 5.39375 5.7 4.6125 6.625 4.6125H7.03125V4.25C7.03125 3.99375 7.24375 3.78125 7.5 3.78125C7.75625 3.78125 7.96875 3.99375 7.96875 4.25V4.6125H8.19375C9.21875 4.6125 10.05 5.48125 10.05 6.54375C10.05 6.8 9.84375 7.0125 9.58125 7.0125C9.325 7.0125 9.1125 6.8 9.1125 6.54375C9.1125 5.99375 8.7 5.55 8.19375 5.55H7.96875V7.66875L8.9125 8C9.4 8.16875 10.05 8.525 10.05 9.64375Z" fill="#6610F2"/>
</svg>
