<svg width="15" height="16" viewBox="0 0 15 16" fill="none" xmlns="http://www.w3.org/2000/svg">
<path d="M2.65625 4.71875C2.65625 6.325 3.9125 7.625 5.55 7.68125C5.6 7.675 5.65 7.675 5.6875 7.68125C5.7 7.68125 5.70625 7.68125 5.71875 7.68125C5.725 7.68125 5.725 7.68125 5.73125 7.68125C7.33125 7.625 8.5875 6.325 8.59375 4.71875C8.59375 3.08125 7.2625 1.75 5.625 1.75C3.9875 1.75 2.65625 3.08125 2.65625 4.71875Z" fill="#6610F2"/>
<path d="M2.45684 9.34307C1.66309 9.87432 1.22559 10.5931 1.22559 11.3618C1.22559 12.1306 1.66309 12.8431 2.45059 13.3681C3.32559 13.9556 4.47559 14.2493 5.62559 14.2493C6.77559 14.2493 7.92559 13.9556 8.80059 13.3681C9.58809 12.8368 10.0256 12.1243 10.0256 11.3493C10.0193 10.5806 9.58809 9.86807 8.80059 9.34307C7.05684 8.18057 4.21309 8.18057 2.45684 9.34307Z" fill="#6610F2"/>
<path d="M10.5371 7.50509C10.5309 7.50509 10.5309 7.50509 10.5246 7.50509H10.5059C10.4684 7.50509 10.4309 7.50509 10.3996 7.51759C9.79336 7.54884 9.23711 7.35509 8.81836 6.99884C9.46211 6.42384 9.83086 5.56134 9.75586 4.62384C9.71211 4.11759 9.53711 3.65509 9.27461 3.26134C9.51211 3.14259 9.78711 3.06759 10.0684 3.04259C11.2934 2.93634 12.3871 3.84884 12.4934 5.08634C12.5934 6.29884 11.7309 7.36134 10.5371 7.50509Z" fill="#6610F2"/>
<path d="M12.6552 12.3565C12.0302 12.7002 11.2427 12.8627 10.4614 12.844C10.9114 12.4377 11.1739 11.9315 11.2239 11.394C11.2864 10.619 10.9177 9.87525 10.1802 9.2815C9.76143 8.95025 9.27393 8.68775 8.74268 8.494C10.1239 8.094 11.8614 8.36275 12.9302 9.22525C13.5052 9.68775 13.7989 10.269 13.7427 10.869C13.6927 11.4752 13.3052 12.0002 12.6552 12.3565Z" fill="#6610F2"/>
</svg>
